<svg xmlns="http://www.w3.org/2000/svg" width="50.594" height="42.898" viewBox="0 0 50.594 42.898">
  <defs>
    <style>
      .cls-1 {
        fill: #c46d5e;
      }
    </style>
  </defs>
  <path id="github" class="cls-1" d="M35.321,28.567c-1.975,0-3.575,2.219-3.575,4.946s1.6,4.953,3.575,4.953S38.9,36.247,38.9,33.513,37.3,28.567,35.321,28.567ZM47.767,15.691c.409-1,.426-6.706-1.746-12.171,0,0-4.98.547-12.515,5.719a29.58,29.58,0,0,0-6.926-.655,29.572,29.572,0,0,0-6.929.655C12.113,4.067,7.135,3.52,7.135,3.52,4.966,8.983,4.986,14.687,5.392,15.691A14.912,14.912,0,0,0,1.281,26.336c0,19.76,16.4,20.077,20.532,20.077.94,0,2.8.005,4.767.005s3.827-.005,4.762-.005c4.142,0,20.532-.316,20.532-20.077a14.92,14.92,0,0,0-4.107-10.645ZM26.654,43.982H26.5c-10.37,0-18.447-1.234-18.447-11.315a8.513,8.513,0,0,1,2.879-6.513c3.374-3.1,9.088-1.461,15.569-1.461h.153c6.481,0,12.2-1.64,15.574,1.461A8.527,8.527,0,0,1,45.1,32.667c0,10.081-8.076,11.315-18.447,11.315ZM17.836,28.567c-1.975,0-3.575,2.219-3.575,4.946s1.6,4.953,3.575,4.953,3.578-2.219,3.578-4.953S19.814,28.567,17.836,28.567Z" transform="translate(-1.281 -3.52)"/>
</svg>
